<svg version="1.1" id="Layer_1" xmlns="http://www.w3.org/2000/svg" xmlns:xlink="http://www.w3.org/1999/xlink" x="0px" y="0px"
	 width="100%" viewBox="0 0 512 512" enable-background="new 0 0 512 512" xml:space="preserve">
<path fill="#000000" opacity="1.000000" stroke="none" 
	d="
M267.000000,513.000000 
	C260.645599,513.000000 254.291214,513.000000 247.342102,512.613586 
	C247.497009,509.629028 248.897491,507.031891 248.901520,504.432587 
	C249.018555,428.797455 248.997528,353.162079 248.994141,277.526764 
	C248.993790,269.582367 247.400116,268.005890 239.383713,268.005341 
	C189.571014,268.002014 139.758331,268.002502 89.945641,268.004974 
	C81.433769,268.005402 80.004700,269.474396 80.004539,278.208466 
	C80.003174,351.511414 79.965065,424.814453 80.089485,498.117188 
	C80.097908,503.079193 81.334572,508.039124 82.000000,513.000000 
	C73.979103,513.000000 65.958199,513.000000 57.303707,512.622681 
	C57.445305,508.446289 58.892548,504.648102 58.897469,500.848022 
	C59.022217,404.529938 58.995708,308.211700 58.995708,211.893478 
	C58.995708,209.779663 58.995708,207.665848 58.995708,205.407578 
	C191.289520,205.407578 322.968689,205.407578 455.004242,205.407578 
	C455.004242,207.963745 455.004242,210.110550 455.004242,212.257339 
	C455.004242,303.409698 454.961243,394.562134 455.070831,485.714355 
	C455.081787,494.821655 453.538849,504.109314 457.000000,513.000000 
	C448.979095,513.000000 440.958191,513.000000 432.332733,512.618408 
	C432.483337,509.593842 433.886108,506.953369 433.896179,504.307617 
	C434.039154,466.664276 434.002991,429.020172 433.984772,391.376282 
	C433.981598,384.773376 431.236115,382.016418 424.661896,382.014404 
	C374.525543,381.998993 324.389191,381.997070 274.252838,382.017273 
	C267.710907,382.019928 265.009369,384.795532 265.008453,391.319000 
	C265.003357,427.630371 264.940460,463.942017 265.093658,500.252747 
	C265.111603,504.504425 266.335297,508.751038 267.000000,513.000000 
z"/>
<path fill="#5D3391" opacity="1.000000" stroke="none" 
	d="
M457.468658,513.000000 
	C453.538849,504.109314 455.081787,494.821655 455.070831,485.714355 
	C454.961243,394.562134 455.004242,303.409698 455.004242,212.257339 
	C455.004242,210.110550 455.004242,207.963745 455.004242,205.407578 
	C322.968689,205.407578 191.289520,205.407578 58.995708,205.407578 
	C58.995708,207.665848 58.995708,209.779663 58.995708,211.893478 
	C58.995708,308.211700 59.022217,404.529938 58.897469,500.848022 
	C58.892548,504.648102 57.445305,508.446289 56.835056,512.622681 
	C38.352119,513.000000 19.704237,513.000000 1.000000,513.000000 
	C1.000000,386.979126 1.000000,260.958221 1.348889,134.612305 
	C10.102745,129.703705 18.469042,125.047462 26.920143,120.550591 
	C49.633984,108.464401 72.373718,96.426743 95.122643,84.406662 
	C118.323944,72.147583 141.541351,59.918945 164.764587,47.701427 
	C191.338913,33.720913 217.945251,19.801008 244.475372,5.737200 
	C246.566391,4.628743 248.169907,2.600679 250.000000,0.999998 
	C254.024551,1.000000 258.049103,1.000000 262.389404,1.347908 
	C263.904724,2.513412 265.041107,3.448793 266.313293,4.130900 
	C285.025757,14.163870 303.740662,24.192511 322.486511,34.162937 
	C345.613892,46.463757 368.747162,58.753883 391.921417,70.966026 
	C413.362244,82.264717 434.872742,93.431129 456.326080,104.706223 
	C462.871338,108.146156 469.307007,111.793869 475.831146,115.274696 
	C488.206177,121.877174 500.608826,128.427826 513.000000,135.000000 
	C513.000000,261.000000 513.000000,387.000031 513.000000,513.000000 
	C494.566986,513.000000 476.252167,513.000000 457.468658,513.000000 
M234.499969,188.124084 
	C308.994659,188.124084 383.489380,188.123734 457.984070,188.126389 
	C459.650208,188.126450 461.327515,188.043808 462.980286,188.201843 
	C467.368622,188.621445 470.036377,190.981628 470.503754,195.452454 
	C470.710846,197.433655 470.669556,199.445221 470.669708,201.443008 
	C470.676636,297.603088 470.675812,393.763153 470.675842,489.923218 
	C470.675842,492.170410 470.675812,494.417633 470.675812,496.647675 
	C479.892670,496.647675 488.292480,496.647675 496.998230,496.647675 
	C496.998230,494.987152 496.998230,493.676208 496.998230,492.365265 
	C496.998291,378.039764 496.982574,263.714294 497.077057,149.388855 
	C497.079803,146.079025 496.059326,144.410889 493.144440,142.869827 
	C415.588684,101.867409 338.079865,60.776184 260.611237,19.609379 
	C257.910126,18.174004 255.950378,18.314888 253.316635,19.714325 
	C175.993256,60.799946 98.636375,101.822670 21.215864,142.724884 
	C17.913059,144.469803 16.916536,146.388443 16.919716,150.013458 
	C17.019552,263.838867 17.001583,377.664429 17.001591,491.489960 
	C17.001593,493.242615 17.001591,494.995270 17.001591,496.743835 
	C25.867346,496.743835 33.973675,496.743835 42.670731,496.743835 
	C42.670731,494.373352 42.670723,492.251099 42.670727,490.128876 
	C42.670849,393.468842 42.669334,296.808807 42.673489,200.148773 
	C42.673927,189.983200 44.507526,188.126587 54.512249,188.125992 
	C114.174820,188.122498 173.837402,188.124161 234.499969,188.124084 
z"/>
<path fill="#000000" opacity="1.000000" stroke="none" 
	d="
M513.000000,134.531342 
	C500.608826,128.427826 488.206177,121.877174 475.831146,115.274696 
	C469.307007,111.793869 462.871338,108.146156 456.326080,104.706223 
	C434.872742,93.431129 413.362244,82.264717 391.921417,70.966026 
	C368.747162,58.753883 345.613892,46.463757 322.486511,34.162937 
	C303.740662,24.192511 285.025757,14.163870 266.313293,4.130900 
	C265.041107,3.448793 263.904724,2.513412 262.852600,1.347908 
	C346.238312,1.000000 429.476654,1.000000 513.000000,1.000000 
	C513.000000,45.353821 513.000000,89.708252 513.000000,134.531342 
z"/>
<path fill="#000000" opacity="1.000000" stroke="none" 
	d="
M249.531342,0.999998 
	C248.169907,2.600679 246.566391,4.628743 244.475372,5.737200 
	C217.945251,19.801008 191.338913,33.720913 164.764587,47.701427 
	C141.541351,59.918945 118.323944,72.147583 95.122643,84.406662 
	C72.373718,96.426743 49.633984,108.464401 26.920143,120.550591 
	C18.469042,125.047462 10.102745,129.703705 1.348889,134.143646 
	C1.000000,89.717484 1.000000,45.434975 1.000000,1.000000 
	C83.687500,1.000000 166.375092,1.000000 249.531342,0.999998 
z"/>
<path fill="#5D3391" opacity="1.000000" stroke="none" 
	d="
M82.468658,513.000000 
	C81.334572,508.039124 80.097908,503.079193 80.089485,498.117188 
	C79.965065,424.814453 80.003174,351.511414 80.004539,278.208466 
	C80.004700,269.474396 81.433769,268.005402 89.945641,268.004974 
	C139.758331,268.002502 189.571014,268.002014 239.383713,268.005341 
	C247.400116,268.005890 248.993790,269.582367 248.994141,277.526764 
	C248.997528,353.162079 249.018555,428.797455 248.901520,504.432587 
	C248.897491,507.031891 247.497009,509.629028 246.873703,512.613586 
	C192.312439,513.000000 137.624878,513.000000 82.468658,513.000000 
M226.377228,284.121460 
	C215.938751,284.121460 205.500290,284.121460 194.661148,284.121460 
	C194.661148,291.748352 194.520386,298.727509 194.710785,305.697632 
	C194.837112,310.321716 193.188248,312.269043 188.310684,312.200836 
	C172.822327,311.984070 157.329025,312.128265 141.837631,312.117432 
	C135.097443,312.112732 134.702957,311.729492 134.680008,305.125122 
	C134.655960,298.204346 134.674637,291.283417 134.674637,284.444946 
	C121.402855,284.444946 108.983315,284.444946 96.533859,284.444946 
	C96.533859,317.283447 96.533859,349.796753 96.533859,382.358063 
	C142.178818,382.358063 187.410706,382.358063 232.637146,382.358063 
	C232.637146,349.499908 232.637146,316.958679 232.637146,284.121460 
	C230.629028,284.121460 228.984970,284.121460 226.377228,284.121460 
M107.525818,496.999115 
	C149.275558,496.999115 191.025284,496.999115 232.631470,496.999115 
	C232.631470,463.897034 232.631470,431.496124 232.631470,399.243286 
	C219.834320,399.243286 207.407120,399.243286 194.668503,399.243286 
	C194.668503,406.390839 194.706726,413.205261 194.656662,420.019043 
	C194.615036,425.688141 193.657150,426.644714 187.892273,426.657501 
	C172.393906,426.691895 156.895386,426.691162 141.397018,426.656250 
	C135.460815,426.642883 134.712585,425.888672 134.678345,420.090179 
	C134.637314,413.141113 134.668671,406.191650 134.668671,399.328217 
	C121.455612,399.328217 108.905380,399.328217 96.396454,399.328217 
	C96.396454,432.013062 96.396454,464.275391 96.396454,496.999115 
	C99.951614,496.999115 103.243752,496.999115 107.525818,496.999115 
M184.143417,304.113892 
	C184.959763,303.507721 186.471863,302.917511 186.486191,302.292908 
	C186.652390,295.043213 186.592453,287.788361 186.592453,280.405212 
	C171.723480,280.405212 157.513977,280.405212 143.042435,280.405212 
	C143.042435,288.367279 143.042435,296.040222 143.042435,304.127625 
	C156.680847,304.127625 169.941727,304.127625 184.143417,304.113892 
M174.484070,398.651550 
	C164.056763,398.651550 153.629456,398.651550 142.944214,398.651550 
	C142.944214,405.570740 142.944214,411.807190 142.944214,418.659485 
	C156.831970,418.659485 170.434937,418.701752 184.035980,418.560883 
	C184.909882,418.551849 186.489899,417.154480 186.519791,416.357178 
	C186.735184,410.609192 186.635193,404.849396 186.635193,398.651398 
	C182.417587,398.651398 178.946457,398.651398 174.484070,398.651550 
z"/>
<path fill="#5D3491" opacity="1.000000" stroke="none" 
	d="
M267.468689,513.000000 
	C266.335297,508.751038 265.111603,504.504425 265.093658,500.252747 
	C264.940460,463.942017 265.003357,427.630371 265.008453,391.319000 
	C265.009369,384.795532 267.710907,382.019928 274.252838,382.017273 
	C324.389191,381.997070 374.525543,381.998993 424.661896,382.014404 
	C431.236115,382.016418 433.981598,384.773376 433.984772,391.376282 
	C434.002991,429.020172 434.039154,466.664276 433.896179,504.307617 
	C433.886108,506.953369 432.483337,509.593842 431.864075,512.618408 
	C377.312439,513.000000 322.624878,513.000000 267.468689,513.000000 
M304.497986,398.672913 
	C296.756744,398.672913 289.015533,398.672913 281.275452,398.672913 
	C281.275452,431.829437 281.275452,464.222748 281.275452,496.629517 
	C326.893585,496.629517 372.237885,496.629517 417.542542,496.629517 
	C417.542542,463.867249 417.542542,431.473846 417.542542,398.939148 
	C404.783691,398.939148 392.354736,398.939148 379.334290,398.939148 
	C379.334290,406.144348 379.365631,413.098236 379.324585,420.051697 
	C379.290253,425.872650 378.535950,426.644257 372.646210,426.658630 
	C357.491608,426.695618 342.336853,426.679626 327.182159,426.669525 
	C319.938934,426.664703 319.340027,426.041138 319.329346,418.612152 
	C319.319885,412.035553 319.327362,405.458954 319.327362,398.672882 
	C314.139374,398.672882 309.817780,398.672882 304.497986,398.672913 
M345.500916,394.657379 
	C339.591583,394.657379 333.682281,394.657379 327.338623,394.657379 
	C327.338623,402.285156 327.191895,409.084656 327.500671,415.863434 
	C327.545654,416.851746 329.726105,418.482758 330.984650,418.548492 
	C336.626740,418.843170 342.292755,418.680145 347.950134,418.680756 
	C355.561218,418.681580 363.172272,418.680969 370.881348,418.680969 
	C370.881348,410.339874 370.881348,402.653748 370.881348,394.657288 
	C362.449402,394.657288 354.475037,394.657288 345.500916,394.657379 
z"/>
<path fill="#C5E8F8" opacity="1.000000" stroke="none" 
	d="
M233.999969,188.124084 
	C173.837402,188.124161 114.174820,188.122498 54.512249,188.125992 
	C44.507526,188.126587 42.673927,189.983200 42.673489,200.148773 
	C42.669334,296.808807 42.670849,393.468842 42.670727,490.128876 
	C42.670723,492.251099 42.670731,494.373352 42.670731,496.743835 
	C33.973675,496.743835 25.867346,496.743835 17.001591,496.743835 
	C17.001591,494.995270 17.001593,493.242615 17.001591,491.489960 
	C17.001583,377.664429 17.019552,263.838867 16.919716,150.013458 
	C16.916536,146.388443 17.913059,144.469803 21.215864,142.724884 
	C98.636375,101.822670 175.993256,60.799946 253.316635,19.714325 
	C255.950378,18.314888 257.910126,18.174004 260.611237,19.609379 
	C338.079865,60.776184 415.588684,101.867409 493.144440,142.869827 
	C496.059326,144.410889 497.079803,146.079025 497.077057,149.388855 
	C496.982574,263.714294 496.998291,378.039764 496.998230,492.365265 
	C496.998230,493.676208 496.998230,494.987152 496.998230,496.647675 
	C488.292480,496.647675 479.892670,496.647675 470.675812,496.647675 
	C470.675812,494.417633 470.675842,492.170410 470.675842,489.923218 
	C470.675812,393.763153 470.676636,297.603088 470.669708,201.443008 
	C470.669556,199.445221 470.710846,197.433655 470.503754,195.452454 
	C470.036377,190.981628 467.368622,188.621445 462.980286,188.201843 
	C461.327515,188.043808 459.650208,188.126450 457.984070,188.126389 
	C383.489380,188.123734 308.994659,188.124084 233.999969,188.124084 
M302.294800,137.708008 
	C305.956818,129.456192 307.124969,120.872025 306.167816,111.886139 
	C303.201111,84.034348 276.550110,64.321068 248.084137,69.037338 
	C221.137100,73.501945 202.406769,101.548019 208.558517,128.221527 
	C213.311707,148.831024 230.588135,164.742462 250.615097,166.955246 
	C272.723846,169.398071 291.859375,158.763733 302.294800,137.708008 
z"/>
<path fill="#FDFDFD" opacity="1.000000" stroke="none" 
	d="
M226.859070,284.121460 
	C228.984970,284.121460 230.629028,284.121460 232.637146,284.121460 
	C232.637146,316.958679 232.637146,349.499908 232.637146,382.358063 
	C187.410706,382.358063 142.178818,382.358063 96.533859,382.358063 
	C96.533859,349.796753 96.533859,317.283447 96.533859,284.444946 
	C108.983315,284.444946 121.402855,284.444946 134.674637,284.444946 
	C134.674637,291.283417 134.655960,298.204346 134.680008,305.125122 
	C134.702957,311.729492 135.097443,312.112732 141.837631,312.117432 
	C157.329025,312.128265 172.822327,311.984070 188.310684,312.200836 
	C193.188248,312.269043 194.837112,310.321716 194.710785,305.697632 
	C194.520386,298.727509 194.661148,291.748352 194.661148,284.121460 
	C205.500290,284.121460 215.938751,284.121460 226.859070,284.121460 
M147.211533,375.249481 
	C148.078690,374.468658 149.659485,373.720154 149.696564,372.901764 
	C149.927567,367.802826 149.813019,362.688232 149.813019,357.427338 
	C135.180191,357.427338 121.151756,357.427338 106.708954,357.427338 
	C106.708954,362.160065 106.881996,366.483551 106.654907,370.785980 
	C106.468887,374.310120 107.860085,375.395844 111.286308,375.350159 
	C122.942535,375.194824 134.602051,375.287079 147.211533,375.249481 
M212.426865,352.218933 
	C209.921890,354.976562 207.416931,357.734222 204.620300,360.812927 
	C210.083405,362.957916 207.769470,367.104828 208.014038,370.362488 
	C208.231812,373.263245 208.163345,375.407043 212.153320,375.415710 
	C216.219315,375.424530 216.088852,373.171448 216.185822,370.318146 
	C216.305984,366.782715 214.246048,362.332550 220.244766,360.888672 
	C217.566635,357.789429 215.301132,355.167725 212.426865,352.218933 
M184.359451,374.044861 
	C186.723785,374.538452 189.088120,375.032013 190.959091,375.422607 
	C193.992218,370.172272 188.805115,363.689301 196.083817,360.721436 
	C193.483963,357.675720 191.044662,354.818085 188.191406,351.475494 
	C185.564270,354.905914 183.302658,357.859070 181.762375,359.870331 
	C182.830795,362.511597 183.803589,364.035553 184.021393,365.660706 
	C184.350510,368.116425 184.153259,370.642639 184.359451,374.044861 
z"/>
<path fill="#FEFEFE" opacity="1.000000" stroke="none" 
	d="
M107.030853,496.999115 
	C103.243752,496.999115 99.951614,496.999115 96.396454,496.999115 
	C96.396454,464.275391 96.396454,432.013062 96.396454,399.328217 
	C108.905380,399.328217 121.455612,399.328217 134.668671,399.328217 
	C134.668671,406.191650 134.637314,413.141113 134.678345,420.090179 
	C134.712585,425.888672 135.460815,426.642883 141.397018,426.656250 
	C156.895386,426.691162 172.393906,426.691895 187.892273,426.657501 
	C193.657150,426.644714 194.615036,425.688141 194.656662,420.019043 
	C194.706726,413.205261 194.668503,406.390839 194.668503,399.243286 
	C207.407120,399.243286 219.834320,399.243286 232.631470,399.243286 
	C232.631470,431.496124 232.631470,463.897034 232.631470,496.999115 
	C191.025284,496.999115 149.275558,496.999115 107.030853,496.999115 
M149.897858,485.248169 
	C149.896835,481.927032 149.748795,478.597504 149.937881,475.287231 
	C150.112137,472.236450 148.892044,471.195221 145.899673,471.239044 
	C137.432632,471.363037 128.962555,471.277496 120.493668,471.276886 
	C105.840332,471.275848 105.922249,471.272766 106.616425,485.965515 
	C106.760132,489.007172 107.829590,489.967896 110.777618,489.940002 
	C122.566582,489.828430 134.357666,489.838135 146.146896,489.933807 
	C148.921616,489.956299 150.193008,488.977692 149.897858,485.248169 
M189.384766,489.876007 
	C193.617920,489.613037 191.796234,486.332764 192.096848,484.227631 
	C192.579300,480.848999 190.405502,476.556854 196.226654,475.224579 
	C193.303528,472.153625 190.855423,469.581757 188.141037,466.730133 
	C185.552277,469.846313 183.372955,472.469635 181.130096,475.169434 
	C186.015793,477.762421 183.826141,481.979126 183.970215,485.370972 
	C184.112183,488.713379 184.934982,490.416016 189.384766,489.876007 
M205.826126,474.345459 
	C206.975403,479.380859 208.124680,484.416290 209.279556,489.476196 
	C211.239044,489.476196 213.467041,489.476196 215.239273,489.476196 
	C218.131653,484.798157 212.689682,478.330536 220.003296,475.096100 
	C217.387802,472.286804 214.893494,469.607635 212.171066,466.683472 
	C209.845200,469.448792 208.035583,471.600342 205.826126,474.345459 
z"/>
<path fill="#E3E0E4" opacity="1.000000" stroke="none" 
	d="
M183.673004,304.120758 
	C169.941727,304.127625 156.680847,304.127625 143.042435,304.127625 
	C143.042435,296.040222 143.042435,288.367279 143.042435,280.405212 
	C157.513977,280.405212 171.723480,280.405212 186.592453,280.405212 
	C186.592453,287.788361 186.652390,295.043213 186.486191,302.292908 
	C186.471863,302.917511 184.959763,303.507721 183.673004,304.120758 
z"/>
<path fill="#E1DEE3" opacity="1.000000" stroke="none" 
	d="
M174.979691,398.651489 
	C178.946457,398.651398 182.417587,398.651398 186.635193,398.651398 
	C186.635193,404.849396 186.735184,410.609192 186.519791,416.357178 
	C186.489899,417.154480 184.909882,418.551849 184.035980,418.560883 
	C170.434937,418.701752 156.831970,418.659485 142.944214,418.659485 
	C142.944214,411.807190 142.944214,405.570740 142.944214,398.651550 
	C153.629456,398.651550 164.056763,398.651550 174.979691,398.651489 
z"/>
<path fill="#FEFEFE" opacity="1.000000" stroke="none" 
	d="
M304.997070,398.672913 
	C309.817780,398.672882 314.139374,398.672882 319.327362,398.672882 
	C319.327362,405.458954 319.319885,412.035553 319.329346,418.612152 
	C319.340027,426.041138 319.938934,426.664703 327.182159,426.669525 
	C342.336853,426.679626 357.491608,426.695618 372.646210,426.658630 
	C378.535950,426.644257 379.290253,425.872650 379.324585,420.051697 
	C379.365631,413.098236 379.334290,406.144348 379.334290,398.939148 
	C392.354736,398.939148 404.783691,398.939148 417.542542,398.939148 
	C417.542542,431.473846 417.542542,463.867249 417.542542,496.629517 
	C372.237885,496.629517 326.893585,496.629517 281.275452,496.629517 
	C281.275452,464.222748 281.275452,431.829437 281.275452,398.672913 
	C289.015533,398.672913 296.756744,398.672913 304.997070,398.672913 
M322.480164,489.906403 
	C326.392029,489.906403 330.303894,489.906403 334.691681,489.906403 
	C334.691681,484.076416 334.867950,479.102234 334.546417,474.160431 
	C334.480255,473.143433 332.568481,471.436707 331.485657,471.419495 
	C319.168671,471.224091 306.846771,471.237488 294.528717,471.396667 
	C293.462799,471.410431 291.545746,472.811371 291.501129,473.646820 
	C291.220917,478.894958 291.359375,484.165436 291.359375,489.906372 
	C301.898773,489.906372 311.692261,489.906372 322.480164,489.906403 
M377.972900,471.559357 
	C376.691650,470.081146 375.410400,468.602936 373.774292,466.715302 
	C371.036377,469.669861 368.616058,472.281738 366.039032,475.062683 
	C373.490723,478.273682 367.628052,485.082886 370.596069,489.339050 
	C377.819031,490.607147 377.768890,490.547089 377.961517,483.413605 
	C378.039459,480.526855 378.770203,477.657745 379.203888,474.780579 
	C379.651947,474.801971 380.100006,474.823334 380.548065,474.844727 
	C379.840088,473.928833 379.132141,473.012909 377.972900,471.559357 
M394.844727,489.589996 
	C397.067596,489.589996 399.290497,489.589996 401.148132,489.589996 
	C403.351746,484.492096 399.399994,478.768646 404.764374,474.885498 
	C402.472290,472.235779 400.230469,469.644135 397.676819,466.692017 
	C395.175110,469.782196 393.029144,472.432953 391.613342,474.181763 
	C392.617584,476.791321 393.570160,478.360199 393.785004,480.024353 
	C394.165192,482.969482 394.096680,485.972473 394.844727,489.589996 
z"/>
<path fill="#E2DFE3" opacity="1.000000" stroke="none" 
	d="
M346.000793,394.657349 
	C354.475037,394.657288 362.449402,394.657288 370.881348,394.657288 
	C370.881348,402.653748 370.881348,410.339874 370.881348,418.680969 
	C363.172272,418.680969 355.561218,418.681580 347.950134,418.680756 
	C342.292755,418.680145 336.626740,418.843170 330.984650,418.548492 
	C329.726105,418.482758 327.545654,416.851746 327.500671,415.863434 
	C327.191895,409.084656 327.338623,402.285156 327.338623,394.657379 
	C333.682281,394.657379 339.591583,394.657379 346.000793,394.657349 
z"/>
<path fill="#5E3491" opacity="1.000000" stroke="none" 
	d="
M302.142151,138.056274 
	C291.859375,158.763733 272.723846,169.398071 250.615097,166.955246 
	C230.588135,164.742462 213.311707,148.831024 208.558517,128.221527 
	C202.406769,101.548019 221.137100,73.501945 248.084137,69.037338 
	C276.550110,64.321068 303.201111,84.034348 306.167816,111.886139 
	C307.124969,120.872025 305.956818,129.456192 302.142151,138.056274 
M259.089081,150.473984 
	C260.080292,150.348358 261.079163,150.265869 262.061523,150.090591 
	C275.377014,147.714691 284.539276,140.108719 288.757080,127.378899 
	C293.065247,114.376450 290.041138,102.539421 280.226105,93.007896 
	C270.563782,83.624687 258.857025,81.046700 246.065125,85.370010 
	C230.344925,90.683014 221.307831,106.369118 223.990646,122.923225 
	C226.584152,138.926331 240.535294,150.181107 259.089081,150.473984 
z"/>
<path fill="#B4D563" opacity="1.000000" stroke="none" 
	d="
M146.735931,375.267151 
	C134.602051,375.287079 122.942535,375.194824 111.286308,375.350159 
	C107.860085,375.395844 106.468887,374.310120 106.654907,370.785980 
	C106.881996,366.483551 106.708954,362.160065 106.708954,357.427338 
	C121.151756,357.427338 135.180191,357.427338 149.813019,357.427338 
	C149.813019,362.688232 149.927567,367.802826 149.696564,372.901764 
	C149.659485,373.720154 148.078690,374.468658 146.735931,375.267151 
z"/>
<path fill="#B7D768" opacity="1.000000" stroke="none" 
	d="
M212.731262,352.382446 
	C215.301132,355.167725 217.566635,357.789429 220.244766,360.888672 
	C214.246048,362.332550 216.305984,366.782715 216.185822,370.318146 
	C216.088852,373.171448 216.219315,375.424530 212.153320,375.415710 
	C208.163345,375.407043 208.231812,373.263245 208.014038,370.362488 
	C207.769470,367.104828 210.083405,362.957916 204.620300,360.812927 
	C207.416931,357.734222 209.921890,354.976562 212.731262,352.382446 
z"/>
<path fill="#B7D768" opacity="1.000000" stroke="none" 
	d="
M184.269562,373.591888 
	C184.153259,370.642639 184.350510,368.116425 184.021393,365.660706 
	C183.803589,364.035553 182.830795,362.511597 181.762375,359.870331 
	C183.302658,357.859070 185.564270,354.905914 188.191406,351.475494 
	C191.044662,354.818085 193.483963,357.675720 196.083817,360.721436 
	C188.805115,363.689301 193.992218,370.172272 190.959091,375.422607 
	C189.088120,375.032013 186.723785,374.538452 184.269562,373.591888 
z"/>
<path fill="#B7D668" opacity="1.000000" stroke="none" 
	d="
M149.895325,485.713013 
	C150.193008,488.977692 148.921616,489.956299 146.146896,489.933807 
	C134.357666,489.838135 122.566582,489.828430 110.777618,489.940002 
	C107.829590,489.967896 106.760132,489.007172 106.616425,485.965515 
	C105.922249,471.272766 105.840332,471.275848 120.493668,471.276886 
	C128.962555,471.277496 137.432632,471.363037 145.899673,471.239044 
	C148.892044,471.195221 150.112137,472.236450 149.937881,475.287231 
	C149.748795,478.597504 149.896835,481.927032 149.895325,485.713013 
z"/>
<path fill="#B7D768" opacity="1.000000" stroke="none" 
	d="
M188.939117,489.884766 
	C184.934982,490.416016 184.112183,488.713379 183.970215,485.370972 
	C183.826141,481.979126 186.015793,477.762421 181.130096,475.169434 
	C183.372955,472.469635 185.552277,469.846313 188.141037,466.730133 
	C190.855423,469.581757 193.303528,472.153625 196.226654,475.224579 
	C190.405502,476.556854 192.579300,480.848999 192.096848,484.227631 
	C191.796234,486.332764 193.617920,489.613037 188.939117,489.884766 
z"/>
<path fill="#B7D768" opacity="1.000000" stroke="none" 
	d="
M206.026031,474.048645 
	C208.035583,471.600342 209.845200,469.448792 212.171066,466.683472 
	C214.893494,469.607635 217.387802,472.286804 220.003296,475.096100 
	C212.689682,478.330536 218.131653,484.798157 215.239273,489.476196 
	C213.467041,489.476196 211.239044,489.476196 209.279556,489.476196 
	C208.124680,484.416290 206.975403,479.380859 206.026031,474.048645 
z"/>
<path fill="#B7D769" opacity="1.000000" stroke="none" 
	d="
M321.982941,489.906372 
	C311.692261,489.906372 301.898773,489.906372 291.359375,489.906372 
	C291.359375,484.165436 291.220917,478.894958 291.501129,473.646820 
	C291.545746,472.811371 293.462799,471.410431 294.528717,471.396667 
	C306.846771,471.237488 319.168671,471.224091 331.485657,471.419495 
	C332.568481,471.436707 334.480255,473.143433 334.546417,474.160431 
	C334.867950,479.102234 334.691681,484.076416 334.691681,489.906403 
	C330.303894,489.906403 326.392029,489.906403 321.982941,489.906372 
z"/>
<path fill="#B7D768" opacity="1.000000" stroke="none" 
	d="
M378.198547,471.828186 
	C379.132141,473.012909 379.840088,473.928833 380.548065,474.844727 
	C380.100006,474.823334 379.651947,474.801971 379.203888,474.780579 
	C378.770203,477.657745 378.039459,480.526855 377.961517,483.413605 
	C377.768890,490.547089 377.819031,490.607147 370.596191,489.339020 
	C367.628052,485.082886 373.490723,478.273682 366.039032,475.062683 
	C368.616058,472.281738 371.036377,469.669861 373.774292,466.715302 
	C375.410400,468.602936 376.691650,470.081146 378.198547,471.828186 
z"/>
<path fill="#B7D768" opacity="1.000000" stroke="none" 
	d="
M394.530334,489.270630 
	C394.096680,485.972473 394.165192,482.969482 393.785004,480.024353 
	C393.570160,478.360199 392.617584,476.791321 391.613342,474.181763 
	C393.029144,472.432953 395.175110,469.782196 397.676819,466.692017 
	C400.230469,469.644135 402.472290,472.235779 404.764374,474.885498 
	C399.399994,478.768646 403.351746,484.492096 401.148132,489.589996 
	C399.290497,489.589996 397.067596,489.589996 394.530334,489.270630 
z"/>
<path fill="#F07AAD" opacity="1.000000" stroke="none" 
	d="
M258.671143,150.518875 
	C240.535294,150.181107 226.584152,138.926331 223.990646,122.923225 
	C221.307831,106.369118 230.344925,90.683014 246.065125,85.370010 
	C258.857025,81.046700 270.563782,83.624687 280.226105,93.007896 
	C290.041138,102.539421 293.065247,114.376450 288.757080,127.378899 
	C284.539276,140.108719 275.377014,147.714691 262.061523,150.090591 
	C261.079163,150.265869 260.080292,150.348358 258.671143,150.518875 
z"/>
</svg>